<svg width="30" height="34" viewBox="0 0 30 34" fill="none" xmlns="http://www.w3.org/2000/svg">
<path fill-rule="evenodd" clip-rule="evenodd" d="M24.1353 17.9527L15.9135 26.1744C15.409 26.6789 14.591 26.6789 14.0865 26.1744L5.86474 17.9527C5.36021 17.4481 5.36021 16.6301 5.86474 16.1256C6.36926 15.6211 7.18726 15.6211 7.69179 16.1256L13.7081 22.1419V0.478271H16.2919V22.1419L22.3082 16.1256C22.8127 15.6211 23.6307 15.6211 24.1353 16.1256C24.6398 16.6301 24.6398 17.4481 24.1353 17.9527Z" fill="#101217"/>
<path d="M0.130859 32.6957C0.130859 32.2395 0.500711 31.8696 0.956946 31.8696H29.0439C29.5001 31.8696 29.87 32.2395 29.87 32.6957C29.87 33.152 29.5001 33.5218 29.0439 33.5218H0.956945C0.50071 33.5218 0.130859 33.152 0.130859 32.6957Z" fill="#101217"/>
</svg>
