<svg width="24" height="25" viewBox="0 0 24 25" fill="none" xmlns="http://www.w3.org/2000/svg">
<path fill-rule="evenodd" clip-rule="evenodd" d="M10.3975 21.1236C13.0312 19.8669 16.6689 18.1312 19.7413 15.0059H21.5504C22.7051 15.0059 23.2825 15.0059 23.6413 15.3565C24 15.7071 24 16.2749 24 17.4106C24 20.5743 24 22.1561 23.0007 23.1327C22.0013 24.1094 20.3929 24.1094 17.1761 24.1094H3.38733C2.83301 24.1094 2.55585 24.1094 2.3243 24.071C1.15423 23.8772 0.237586 22.9814 0.0392491 21.8379C0 21.6116 0 21.3407 0 20.799C0 16.5898 1.5988 12.7475 4.2322 9.82668C4.36287 9.69625 4.50209 9.55485 4.65 9.40206C6.91048 7.07021 9.32385 5.67104 11.5702 4.3687C12.4764 3.84334 13.3554 3.33373 14.1862 2.78502C13.9521 2.8982 13.7073 3.01503 13.4531 3.13632L13.4527 3.13652L13.4525 3.13659C10.8305 4.38773 7.21339 6.11368 4.14958 9.21282H2.4496C1.29485 9.21282 0.717473 9.21282 0.358737 8.86224C0 8.51166 0 7.94382 0 6.80814C0 3.64446 0 2.06263 0.999338 1.086C1.99868 0.109375 3.60709 0.109375 6.82391 0.109375H20.6127C21.167 0.109375 21.4442 0.109375 21.6757 0.147732C22.8458 0.341561 23.7624 1.23738 23.9608 2.38085C24 2.60714 24 2.878 24 3.41972C24 7.71783 22.333 11.6333 19.5997 14.5758C19.4878 14.6779 19.3777 14.784 19.275 14.8899C17.045 17.1903 14.6291 18.5674 12.3866 19.8456C11.439 20.3857 10.5224 20.9082 9.66382 21.4752C9.89806 21.362 10.1431 21.245 10.3975 21.1237L10.3975 21.1236ZM14.8429 12.9639C14.9386 12.8691 15.0604 12.7225 15.0865 12.688C15.2257 12.5069 15.2952 12.2827 15.2952 12.0594C15.2952 11.8085 15.217 11.5757 15.0691 11.386C15.057 11.374 15.0332 11.3484 15.0023 11.315C14.9444 11.2525 14.8614 11.1629 14.782 11.0842C14.0687 10.3254 12.2071 9.08378 11.2329 8.70439C11.085 8.64489 10.7109 8.51469 10.5109 8.50607C10.3195 8.50607 10.1368 8.54918 9.96283 8.63541C9.74535 8.75612 9.57138 8.94582 9.47569 9.17C9.4148 9.32521 9.31911 9.79082 9.31911 9.79945C9.22342 10.3082 9.17123 11.1359 9.17123 12.0499C9.17123 12.9216 9.22342 13.7141 9.30171 14.2314C9.30386 14.2335 9.31135 14.2705 9.32297 14.328C9.35831 14.5028 9.43193 14.8668 9.51048 15.0161C9.70186 15.3782 10.0759 15.6024 10.4761 15.6024H10.5109C10.7718 15.5938 11.3199 15.3696 11.3199 15.361C12.2419 14.9816 14.06 13.8003 14.7907 13.0156L14.8429 12.9639Z" fill="white"/>
</svg>
