<svg width="138" height="31" viewBox="0 0 138 31" fill="none" xmlns="http://www.w3.org/2000/svg">
<path d="M52.14 20.479H60.5146V23.7849H47.7695V20.479L56.0709 10.0753H48.1602V6.76942H60.4413L60.4657 10.0753L52.14 20.479Z" fill="white"/>
<path d="M63.9625 12.1171C65.3135 10.7883 66.9657 10.1239 68.9189 10.1239C70.8722 10.1239 72.5243 10.7883 73.8753 12.1171C75.2426 13.446 75.9262 15.107 75.9262 17.1002C75.9262 19.1097 75.2507 20.7788 73.8997 22.1077C72.565 23.4203 70.9047 24.0766 68.9189 24.0766C66.9494 24.0766 65.2891 23.4122 63.9381 22.0833C62.6034 20.7545 61.936 19.0935 61.936 17.1002C61.936 15.107 62.6115 13.446 63.9625 12.1171ZM71.3849 14.4507C70.7338 13.7701 69.9118 13.4298 68.9189 13.4298C67.926 13.4298 67.0959 13.7701 66.4285 14.4507C65.7774 15.1313 65.4519 16.0145 65.4519 17.1002C65.4519 18.186 65.7774 19.0692 66.4285 19.7498C67.0959 20.4304 67.926 20.7707 68.9189 20.7707C69.9118 20.7707 70.7338 20.4304 71.3849 19.7498C72.0523 19.0692 72.386 18.186 72.386 17.1002C72.386 16.0145 72.0523 15.1313 71.3849 14.4507Z" fill="white"/>
<path d="M78.3961 23.7849V5.06787H81.8875V23.7849H78.3961Z" fill="white"/>
<path d="M94.7012 10.4156H98.1927L98.1682 23.7849H94.6768V21.9861C93.6513 23.3798 92.2515 24.0766 90.4773 24.0766C88.7031 24.0766 87.2381 23.4284 86.0824 22.132C84.9268 20.8193 84.3489 19.1421 84.3489 17.1002C84.3489 15.0584 84.9268 13.3892 86.0824 12.0928C87.2544 10.7802 88.7112 10.1239 90.4529 10.1239C92.2433 10.1239 93.6595 10.845 94.7012 12.2873V10.4156ZM91.2586 20.7707C92.2515 20.7707 93.0735 20.4304 93.7246 19.7498C94.3757 19.0692 94.7012 18.186 94.7012 17.1002C94.7012 16.0145 94.3757 15.1313 93.7246 14.4507C93.0735 13.7701 92.2515 13.4298 91.2586 13.4298C90.2657 13.4298 89.4518 13.7701 88.817 14.4507C88.1822 15.1313 87.8648 16.0145 87.8648 17.1002C87.8648 18.186 88.1822 19.0692 88.817 19.7498C89.4681 20.4304 90.2819 20.7707 91.2586 20.7707Z" fill="white"/>
<mask id="mask0_20_70" style="mask-type:alpha" maskUnits="userSpaceOnUse" x="0" y="0" width="32" height="31">
<path d="M25.4578 18.8776C29.4096 15.0942 31.8462 9.91169 31.8462 4.19503C31.8462 3.50853 31.8462 3.16528 31.7941 2.87853C31.5309 1.42946 30.3146 0.294237 28.762 0.0486077C28.4548 0 28.087 0 27.3515 0H9.05481C4.78633 0 2.65209 0 1.32605 1.23763C0 2.47526 0 4.47983 0 8.48899C0 9.92818 0 10.6478 0.476017 11.092C0.952033 11.5363 1.71817 11.5363 3.25045 11.5363H6.38835C2.43663 15.3197 0 20.5023 0 26.2189C0 26.9054 0 27.2487 0.0520806 27.5354C0.315259 28.9845 1.53158 30.1197 3.08417 30.3653C3.39142 30.4139 3.75919 30.414 4.49473 30.414H22.7914C27.0599 30.414 29.1941 30.414 30.5201 29.1763C31.8462 27.9387 31.8462 25.9341 31.8462 21.925C31.8462 20.4858 31.8462 19.7662 31.3702 19.3219C30.8942 18.8776 30.128 18.8776 28.5957 18.8776H25.4578Z" fill="#FF9901"/>
</mask>
<g mask="url(#mask0_20_70)">
<path d="M25.4578 18.8775C29.4096 15.0941 31.8462 9.91157 31.8462 4.19491V4.19491C31.8462 1.87806 29.968 -0.00012207 27.6512 -0.00012207H4.26571C2.25483 -0.00012207 1.2494 -0.00012207 0.624698 0.624576C0 1.24927 0 2.25471 0 4.26559V7.2705C0 9.28137 0 10.2868 0.624698 10.9115C1.2494 11.5362 2.25483 11.5362 4.26571 11.5362H6.38835C2.43663 15.3196 0 20.5021 0 26.2188V26.2188C0 28.5356 1.87818 30.4138 4.19503 30.4138H27.5805C29.5914 30.4138 30.5968 30.4138 31.2215 29.7891C31.8462 29.1644 31.8462 28.159 31.8462 26.1481V23.1432C31.8462 21.1323 31.8462 20.1269 31.2215 19.5022C30.5968 18.8775 29.5914 18.8775 27.5805 18.8775H25.4578Z" fill="url(#paint0_linear_20_70)"/>
<g style="mix-blend-mode:screen" filter="url(#filter0_f_20_70)">
<path fill-rule="evenodd" clip-rule="evenodd" d="M31.8406 3.97757C31.7104 9.5069 29.3004 14.5086 25.4578 18.1875H25.5937L25.5937 18.1875C22.5292 21.2555 18.3436 23.6762 14.8223 25.7127C13.5287 26.4608 12.3247 27.1571 11.299 27.8146C12.046 27.464 12.9529 27.031 13.9609 26.5242C14.8046 26.0187 15.6785 25.5338 16.5716 25.0383L16.5716 25.0383C19.5031 23.4116 22.6405 21.6707 25.593 18.7148C25.6984 18.6159 25.8108 18.5153 25.9265 18.4156C29.6013 14.6776 31.8462 9.68259 31.8462 4.19549C31.8462 4.1224 31.8443 4.04974 31.8406 3.97757ZM31.8462 25.4581C31.8462 27.469 31.8462 28.4744 31.2215 29.0991C30.5968 29.7238 29.5914 29.7238 27.5805 29.7238H4.19503C1.95127 29.7238 0.118944 27.9623 0.00556291 25.7467C0.00186079 25.9038 0 26.0614 0 26.2194C0 28.5362 1.87818 30.4144 4.19503 30.4144H27.5805C29.5914 30.4144 30.5968 30.4144 31.2215 29.7897C31.8462 29.165 31.8462 28.1596 31.8462 26.1487V25.4581ZM17.9947 3.76484C18.563 3.50853 19.109 3.26878 19.6259 3.04177C19.9653 2.89272 20.2922 2.74915 20.6048 2.60999C19.4612 3.31081 18.254 3.94937 17.0101 4.60732C14.043 6.17675 10.8675 7.85646 7.84982 10.7544C4.32597 14.5619 4.01162 14.3341 4.97197 13.0279C5.30808 12.6384 5.65876 12.2604 6.02322 11.8947C6.16335 11.7758 6.29971 11.6547 6.42595 11.5363C9.37846 8.5804 12.5159 6.83946 15.4474 5.21282L15.4474 5.21279C16.3181 4.72967 17.1706 4.25663 17.9947 3.76484ZM6.30552 10.8462H4.26571C2.25483 10.8462 1.2494 10.8462 0.624698 10.2215C0 9.59677 0 8.59134 0 6.58046V7.27108C0 9.28195 0 10.2874 0.624698 10.9121C1.2494 11.5368 2.25483 11.5368 4.26571 11.5368H5.58736L5.5879 11.5363C5.82463 11.3002 6.06398 11.0702 6.30552 10.8462Z" fill="#FFB800"/>
</g>
<g style="mix-blend-mode:screen" filter="url(#filter1_f_20_70)">
<path d="M26.7855 17.4952C26.2798 18.0988 25.7141 18.6757 25.1421 19.2232H28.8837C30.2802 19.2232 30.9785 19.2232 31.4123 19.6282C31.8462 20.0331 31.8462 20.6848 31.8462 21.9881L31.8462 20.2601C31.8462 18.9567 31.8462 18.305 31.4123 17.9001C30.9785 17.4952 30.2803 17.4952 28.8838 17.4952H26.7855Z" fill="#FFF5DB"/>
<path d="M0.014025 25.8142C0.217023 20.3952 2.5869 15.1517 6.36501 11.5345L4.65272 11.5616C1.66455 15.1283 0 19.9472 0 24.8365C0 25.2798 0 25.58 0.014025 25.8142Z" fill="#FFF5DB"/>
<path d="M31.8462 2.81258C31.8462 3.06373 31.8415 3.31385 31.8322 3.56286C31.8245 3.43438 31.8125 3.32572 31.7941 3.22415C31.5309 1.77508 30.3146 0.639857 28.762 0.394227C28.4548 0.34562 28.087 0.34562 27.3514 0.34562H2.96243C1.56592 0.34562 0.867671 0.34562 0.433832 0.75053C0.0107988 1.14536 0.000262428 1.77483 0 3.01434V1.38246C0 0.0790706 0 -0.572625 0.433839 -0.977535C0.867677 -1.38245 1.56593 -1.38245 2.96244 -1.38245H27.3515C28.087 -1.38245 28.4548 -1.38245 28.762 -1.33384C30.3146 -1.08821 31.5309 0.047011 31.7941 1.49608C31.8462 1.78284 31.8462 2.12609 31.8462 2.81258Z" fill="#FFF5DB"/>
</g>
<g style="mix-blend-mode:hue" filter="url(#filter2_f_20_70)">
<rect width="18.246" height="46.5351" transform="matrix(0.77549 -0.63136 0.68282 0.730587 -18.3174 7.71899)" fill="#E73361"/>
</g>
<g style="mix-blend-mode:overlay" filter="url(#filter3_f_20_70)">
<rect width="18.246" height="39.2142" transform="matrix(0.775493 -0.631357 0.682823 0.730584 -21.2803 25.345)" fill="#E73361"/>
</g>
<g style="mix-blend-mode:overlay" filter="url(#filter4_f_20_70)">
<rect width="18.246" height="39.2142" transform="matrix(0.775493 -0.631357 0.682823 0.730584 12.417 -2.65039)" fill="#FFC700"/>
</g>
</g>
<path d="M20.018 15.9404C19.9834 15.9841 19.8218 16.1698 19.6948 16.29L19.6256 16.3556C18.656 17.3499 16.2435 18.8469 15.02 19.3277C15.02 19.3386 14.2928 19.6227 13.9465 19.6337H13.9004C13.3694 19.6337 12.8731 19.3496 12.6191 18.8906C12.4806 18.6393 12.3536 17.9072 12.3421 17.8963C12.2382 17.2407 12.1689 16.2365 12.1689 15.1318C12.1689 13.9736 12.2382 12.9246 12.3652 12.2799C12.3652 12.269 12.4921 11.6789 12.5729 11.4822C12.6999 11.1981 12.9308 10.9577 13.2193 10.8048C13.4502 10.6955 13.6926 10.6409 13.9465 10.6409C14.212 10.6518 14.7084 10.8168 14.9046 10.8922C16.1974 11.373 18.6675 12.9464 19.614 13.908C19.7756 14.061 19.9488 14.2467 19.9949 14.2904C20.1912 14.5308 20.2951 14.8258 20.2951 15.1438C20.2951 15.4268 20.2027 15.7109 20.018 15.9404" fill="white"/>
<path fill-rule="evenodd" clip-rule="evenodd" d="M106.086 9.16745C105.675 10.3485 105.675 11.8168 105.675 14.7536C105.675 17.6903 105.675 19.1587 106.086 20.3397C106.829 22.4735 108.506 24.1508 110.64 24.8936C111.821 25.3047 113.289 25.3047 116.226 25.3047H127.449C130.386 25.3047 131.854 25.3047 133.035 24.8936C135.169 24.1508 136.846 22.4735 137.589 20.3397C138 19.1587 138 17.6903 138 14.7536C138 11.8168 138 10.3485 137.589 9.16745C136.846 7.03366 135.169 5.35637 133.035 4.61362C131.854 4.20251 130.386 4.20251 127.449 4.20251H116.226C113.289 4.20251 111.821 4.20251 110.64 4.61362C108.506 5.35637 106.829 7.03366 106.086 9.16745ZM120.66 10.8111V8.30563H110.175V10.8111H114.035V21.2014H116.781V10.8111H120.66ZM134.317 8.30563H131.418L128.153 18.088L124.927 8.30563H122.027L126.425 21.2014H129.881L134.317 8.30563Z" fill="white"/>
<defs>
<filter id="filter0_f_20_70" x="-1.33726" y="1.27272" width="34.5202" height="30.479" filterUnits="userSpaceOnUse" color-interpolation-filters="sRGB">
<feFlood flood-opacity="0" result="BackgroundImageFix"/>
<feBlend mode="normal" in="SourceGraphic" in2="BackgroundImageFix" result="shape"/>
<feGaussianBlur stdDeviation="0.668632" result="effect1_foregroundBlur_20_70"/>
</filter>
<filter id="filter1_f_20_70" x="-1.06643" y="-2.44887" width="33.9786" height="29.3295" filterUnits="userSpaceOnUse" color-interpolation-filters="sRGB">
<feFlood flood-opacity="0" result="BackgroundImageFix"/>
<feBlend mode="normal" in="SourceGraphic" in2="BackgroundImageFix" result="shape"/>
<feGaussianBlur stdDeviation="0.533213" result="effect1_foregroundBlur_20_70"/>
</filter>
<filter id="filter2_f_20_70" x="-46.0445" y="-31.5279" width="101.379" height="100.972" filterUnits="userSpaceOnUse" color-interpolation-filters="sRGB">
<feFlood flood-opacity="0" result="BackgroundImageFix"/>
<feBlend mode="normal" in="SourceGraphic" in2="BackgroundImageFix" result="shape"/>
<feGaussianBlur stdDeviation="13.8635" result="effect1_foregroundBlur_20_70"/>
</filter>
<filter id="filter3_f_20_70" x="-49.0074" y="-13.9019" width="96.38" height="95.6233" filterUnits="userSpaceOnUse" color-interpolation-filters="sRGB">
<feFlood flood-opacity="0" result="BackgroundImageFix"/>
<feBlend mode="normal" in="SourceGraphic" in2="BackgroundImageFix" result="shape"/>
<feGaussianBlur stdDeviation="13.8635" result="effect1_foregroundBlur_20_70"/>
</filter>
<filter id="filter4_f_20_70" x="-15.3101" y="-41.8973" width="96.38" height="95.6233" filterUnits="userSpaceOnUse" color-interpolation-filters="sRGB">
<feFlood flood-opacity="0" result="BackgroundImageFix"/>
<feBlend mode="normal" in="SourceGraphic" in2="BackgroundImageFix" result="shape"/>
<feGaussianBlur stdDeviation="13.8635" result="effect1_foregroundBlur_20_70"/>
</filter>
<linearGradient id="paint0_linear_20_70" x1="4.74164" y1="-0.000100279" x2="27.4545" y2="30.5999" gradientUnits="userSpaceOnUse">
<stop stop-color="#F88F03"/>
<stop offset="1" stop-color="#F86A03"/>
</linearGradient>
</defs>
</svg>
