<svg width="53" height="64" viewBox="0 0 53 64" fill="none" xmlns="http://www.w3.org/2000/svg">
<path d="M51.1932 37.6954C50.9673 38.0062 49.9134 39.3275 49.0852 40.1825L48.6335 40.6488C42.3097 47.7215 26.5753 58.3695 18.5952 61.7893C18.5952 61.867 13.8523 63.8878 11.5937 63.9655H11.2926C7.82955 63.9655 4.59233 61.9447 2.93608 58.6804C2.03267 56.8928 1.20455 51.6854 1.12926 51.6077C0.451705 46.9443 0 39.8016 0 31.9439C0 23.7053 0.451705 16.244 1.27983 11.6584C1.27983 11.5806 2.10795 7.38363 2.63494 5.98462C3.46307 3.96384 4.96875 2.25395 6.85085 1.16584C8.35653 0.388612 9.9375 0 11.5937 0C13.3253 0.0777224 16.5625 1.25133 17.8423 1.78761C26.2741 5.2074 42.3849 16.3994 48.5582 23.239C49.6122 24.3271 50.7415 25.6484 51.0426 25.9593C52.3224 27.6692 53 29.7677 53 32.0294C53 34.0424 52.3977 36.0632 51.1932 37.6954" fill="url(#paint0_linear_20_110)"/>
<defs>
<linearGradient id="paint0_linear_20_110" x1="26.5" y1="0" x2="26.5" y2="63.9655" gradientUnits="userSpaceOnUse">
<stop stop-color="#FD503D"/>
<stop offset="1" stop-color="#FCAC13"/>
</linearGradient>
</defs>
</svg>
