<svg width="80" height="80" viewBox="0 0 80 80" fill="none" xmlns="http://www.w3.org/2000/svg">
<path fill-rule="evenodd" clip-rule="evenodd" d="M39.6076 2.6314V2.93985e-08C17.7329 -0.000833747 0 17.7336 0 39.6094C0 61.4852 17.7329 79.2187 39.6076 79.2187V76.5874C25.4071 76.5748 11.8708 68.333 5.78423 54.499C-2.43743 35.8107 6.04512 13.9941 24.7329 5.7714C29.4223 3.70117 34.4871 2.63201 39.6076 2.6314" fill="#22BBBE"/>
<path fill-rule="evenodd" clip-rule="evenodd" d="M25.7842 8.19182L24.7225 5.77637C6.03387 13.9991 -2.44868 35.8148 5.77381 54.5031C13.9963 73.1914 35.8114 81.6759 54.4992 73.4523L53.4358 71.0377C43.7722 75.28 32.2882 75.0257 22.4474 69.3435C6.0289 59.8643 0.403678 38.8698 9.8834 22.4502C13.5358 16.1101 19.1083 11.1135 25.7851 8.19182" fill="#7DAD41"/>
<path fill-rule="evenodd" clip-rule="evenodd" d="M55.4587 12.1555L56.7715 9.88098C40.353 0.400946 19.3595 6.0281 9.87974 22.446C0.400851 38.8647 6.0269 59.86 22.4445 69.3392L23.7614 67.0589C21.1304 65.5338 18.731 63.6356 16.6371 61.4225C4.59078 48.7283 5.11669 28.6718 17.8099 16.6246C28.2321 6.73348 43.6178 5.31939 55.4587 12.1564" fill="#F4B719"/>
<path fill-rule="evenodd" clip-rule="evenodd" d="M19.6124 18.5372L17.8028 16.6304C5.10877 28.6776 4.57789 48.7274 16.6242 61.4217C28.6706 74.1167 48.7257 74.6412 61.4189 62.5948L59.6035 60.6813C52.8353 67.093 43.108 70.138 33.3218 67.9676C17.6603 64.4958 7.77976 48.9842 11.2516 33.3226C12.4999 27.6605 15.4134 22.5082 19.6124 18.5372" fill="#E55824"/>
<path fill-rule="evenodd" clip-rule="evenodd" d="M45.3229 13.8317L45.8944 11.252C30.2329 7.78018 14.723 17.6613 11.2503 33.3238C7.77841 48.9854 17.6606 64.497 33.3213 67.9688L33.8928 65.3925L33.8886 65.3916C19.6492 62.2333 10.6664 48.1325 13.8227 33.8949C16.979 19.6573 31.0802 10.6742 45.3171 13.8301L45.3229 13.8317Z" fill="#B52C80"/>
<path fill-rule="evenodd" clip-rule="evenodd" d="M59.0038 43.6316H65.6899C65.8324 42.7002 65.9251 41.7531 65.9682 40.7926L59.0029 40.8267V43.6316H59.0038ZM59.0038 35.5039V38.2137L65.9558 38.1787C65.9079 37.2829 65.8147 36.3901 65.6767 35.5039H59.0038Z" fill="#FEFEFE"/>
<path fill-rule="evenodd" clip-rule="evenodd" d="M56.0848 46.2446V32.8909H65.1306C62.1573 21.5615 51.8502 13.2046 39.5885 13.2046C25.0053 13.2046 13.1826 25.0275 13.1826 39.6103C13.1826 54.1939 25.0053 66.0168 39.5877 66.0168C51.88 66.0168 62.2095 57.6174 65.1521 46.2446H56.0832H56.0848ZM69.4099 44.4195L70.8552 42.7269C71.9194 43.715 73.0417 44.3236 74.2765 44.3236C75.8733 44.3236 76.9185 43.4115 76.9185 42.0232V41.9857C76.9185 40.6358 75.7781 39.7804 74.1622 39.7804C73.2114 39.7804 72.3948 40.0472 71.7107 40.3699L70.3028 39.4377L70.6837 32.9176H78.6296V34.9895H72.6988L72.4892 38.1078C73.117 37.8794 73.7067 37.7268 74.5995 37.7268C77.1844 37.7268 79.2185 39.0958 79.2185 41.909V41.9474C79.2185 44.6655 77.2415 46.4531 74.2956 46.4531C72.2615 46.4531 70.6647 45.636 69.4091 44.4187" fill="#FEFEFE"/>
<path fill-rule="evenodd" clip-rule="evenodd" d="M52.5484 35.5045H45.299V38.2143H52.5484V40.8273H45.299V43.6322H52.5484V46.2452H42.3796V32.8915H52.5476L52.5484 35.5045ZM39.3094 35.1235L31.964 43.6697H39.3094V46.2461H28.1865V44.0132L35.5311 35.467H28.4168V32.8915H39.3094V35.1235ZM65.9571 38.1793H65.8602L59.0026 38.2135V35.5045H65.6789C65.5411 34.6244 65.3587 33.7519 65.1322 32.8906H56.0857V46.2452H65.1554C65.3774 45.3906 65.5563 44.5193 65.6921 43.6322H59.0043V40.8273L65.876 40.794L65.9687 40.7932H65.9696C66.0082 39.9225 66.0043 39.0504 65.958 38.1801" fill="#020303"/>
</svg>
