<svg width="115" height="163" viewBox="0 0 115 163" fill="none" xmlns="http://www.w3.org/2000/svg">
<mask id="mask0_20_326" style="mask-type:alpha" maskUnits="userSpaceOnUse" x="0" y="0" width="115" height="117">
<path d="M91.3606 72.6192C105.542 58.065 114.286 38.1287 114.286 16.1376C114.286 13.4968 114.286 12.1763 114.1 11.0732C113.155 5.49889 108.79 1.13188 103.218 0.186986C102.116 0 100.796 0 98.1562 0H32.495C17.1767 0 9.51757 0 4.75878 4.76095C0 9.52191 0 17.2332 0 32.6558C0 38.1921 0 40.9603 1.70828 42.6693C3.41656 44.3784 6.166 44.3784 11.6649 44.3784H22.9259C8.74433 58.9325 0 78.8689 0 100.86C0 103.501 0 104.821 0.186902 105.924C1.13137 111.499 5.49638 115.866 11.0682 116.811C12.1708 116.998 13.4906 116.998 16.1303 116.998H81.7914C97.1097 116.998 104.769 116.998 109.528 112.237C114.286 107.476 114.286 99.7644 114.286 84.3418C114.286 78.8055 114.286 76.0373 112.578 74.3282C110.87 72.6192 108.12 72.6192 102.622 72.6192H91.3606Z" fill="#FF9901"/>
</mask>
<g mask="url(#mask0_20_326)">
<path d="M91.3606 72.6192C105.542 58.065 114.286 38.1287 114.286 16.1376V16.1376C114.286 13.506 114.286 12.1902 114.101 11.0908C113.158 5.5048 108.782 1.12835 103.196 0.18555C102.096 0 100.78 0 98.1488 0H10.6441C5.62641 0 3.11758 0 1.55879 1.55879C0 3.11758 0 5.62641 0 10.6441V33.7343C0 38.752 0 41.2608 1.55879 42.8196C3.11758 44.3784 5.62641 44.3784 10.6441 44.3784H22.9259C8.74433 58.9325 0 78.8689 0 100.86V100.86C0 103.492 0 104.807 0.18555 105.907C1.12835 111.493 5.5048 115.869 11.0908 116.812C12.1902 116.998 13.506 116.998 16.1376 116.998H103.642C108.66 116.998 111.169 116.998 112.728 115.439C114.286 113.88 114.286 111.371 114.286 106.354V83.2633C114.286 78.2456 114.286 75.7368 112.728 74.178C111.169 72.6192 108.66 72.6192 103.642 72.6192H91.3606Z" fill="url(#paint0_linear_20_326)"/>
<g style="mix-blend-mode:screen" filter="url(#filter0_f_20_326)">
<path fill-rule="evenodd" clip-rule="evenodd" d="M114.283 14.2633C114.077 35.9438 105.373 55.5794 91.3606 69.9603H91.8478L91.8472 69.9609C80.8497 81.7628 65.8286 91.075 53.1918 98.909C48.5494 101.787 44.2288 104.466 40.5477 106.995C43.245 105.638 46.5228 103.96 50.1667 101.995C53.1749 100.065 56.2896 98.2127 59.4719 96.3199C69.9921 90.0624 81.2514 83.3654 91.8471 71.9947C92.2161 71.6234 92.6092 71.2456 93.0141 70.8711C106.219 56.4883 114.286 37.2609 114.286 16.1377C114.286 15.4233 114.286 14.8058 114.283 14.2633ZM114.286 103.695C114.286 108.712 114.286 111.221 112.728 112.78C111.169 114.339 108.66 114.339 103.642 114.339H16.1376C13.506 114.339 12.1902 114.339 11.0908 114.153C5.5048 113.21 1.12835 108.834 0.18555 103.248C0.050375 102.447 0.0136764 101.531 0.003713 100.076C0.00123953 100.337 0 100.598 0 100.86C0 103.492 0 104.808 0.18555 105.907C1.12835 111.493 5.5048 115.869 11.0908 116.812C12.1902 116.998 13.506 116.998 16.1376 116.998H103.642C108.66 116.998 111.169 116.998 112.728 115.439C114.286 113.88 114.286 111.371 114.286 106.354V103.695ZM64.5708 14.4857C66.6127 13.4986 68.5739 12.5754 70.4308 11.7013L70.4311 11.7012C71.649 11.1278 72.8221 10.5756 73.9438 10.0403C69.8397 12.7362 65.5074 15.1927 61.0435 17.7237C50.3956 23.7611 38.9996 30.2226 28.17 41.3706C15.5185 56.0237 14.3949 55.1404 17.8468 50.1098C19.0523 48.6125 20.3101 47.1594 21.6173 45.7533C22.1187 45.2972 22.6065 44.833 23.0583 44.3785C33.6539 33.0078 44.9132 26.3107 55.4334 20.0533C58.5566 18.1956 61.6146 16.3767 64.5708 14.4857ZM22.6305 41.7195H10.6441C5.62641 41.7195 3.11758 41.7195 1.55879 40.1607C0 38.6019 0 36.0931 0 31.0754V33.7344C0 38.7521 0 41.2609 1.55879 42.8197C3.11758 44.3785 5.62641 44.3785 10.6441 44.3785H20.0507C20.9017 43.4688 21.7621 42.5828 22.6305 41.7195Z" fill="#FFB800"/>
</g>
<g style="mix-blend-mode:screen" filter="url(#filter1_f_20_326)">
<path d="M96.125 67.3011C94.3102 69.623 92.2801 71.8422 90.2276 73.9487H103.655C108.667 73.9487 111.173 73.9487 112.729 75.5063C114.286 77.0639 114.286 79.5709 114.286 84.5848L114.286 77.9372C114.286 72.9233 114.286 70.4163 112.73 68.8587C111.173 67.3011 108.667 67.3011 103.655 67.3011H96.125Z" fill="#FFF5DB"/>
<path d="M0.0503317 99.3031C0.778829 78.457 9.28363 58.2861 22.8421 44.3714L16.6972 44.4756C5.97358 58.1962 0 76.7336 0 95.5419C0 97.2473 0 98.402 0.0503317 99.3031Z" fill="#FFF5DB"/>
<path d="M114.286 10.8195C114.286 11.7856 114.27 12.7478 114.236 13.7057C114.208 13.2114 114.166 12.7934 114.099 12.4027C113.155 6.82837 108.79 2.46136 103.218 1.51646C102.116 1.32948 100.796 1.32948 98.1561 1.32948H10.6313C5.61963 1.32948 3.11381 1.32948 1.55689 2.8871C0.0387538 4.40594 0.000941776 6.8274 0 11.5956V5.31804C0 0.304106 0 -2.20286 1.55692 -3.76049C3.11383 -5.31812 5.61965 -5.31812 10.6313 -5.31812H98.1562C100.796 -5.31812 102.116 -5.31812 103.218 -5.13113C108.79 -4.18623 113.155 0.180778 114.1 5.75511C114.286 6.85822 114.286 8.17864 114.286 10.8195Z" fill="#FFF5DB"/>
</g>
<g style="mix-blend-mode:multiply">
<path d="M46.5119 104.367C57.5862 97.7196 80.2291 86.3634 96.3461 67.1407L126.911 64.4817L131.562 120.321L0 123.645L46.5119 104.367Z" fill="url(#paint1_radial_20_326)"/>
</g>
<g style="mix-blend-mode:multiply">
<path d="M67.0703 13.2951C55.9961 19.9427 33.361 31.7634 17.2361 50.5216L-13.329 53.1807L-17.9802 -2.6591L103.615 -5.98289L67.0703 13.2951Z" fill="url(#paint2_radial_20_326)" fill-opacity="0.7"/>
</g>
<g style="mix-blend-mode:overlay" filter="url(#filter2_f_20_326)">
<path d="M24.0923 28.9501C9.47423 28.9501 -1.94922 16.6191 -1.94922 3.98868L34.5959 -11.3008L132.935 -2.65891C126.955 11.7442 111.683 43.9802 111.683 37.5985C111.683 29.6214 100.163 11.549 80.2295 11.549C60.2958 11.549 57.3151 28.9501 24.0923 28.9501Z" fill="#FFD600"/>
</g>
<g style="mix-blend-mode:hue" filter="url(#filter3_f_20_326)">
<rect width="67.3965" height="173.516" transform="matrix(0.753434 -0.657523 0.657183 0.753731 -65.7373 29.6902)" fill="#E73361"/>
</g>
<g style="mix-blend-mode:overlay" filter="url(#filter4_f_20_326)">
<rect width="67.3965" height="146.218" transform="matrix(0.753434 -0.657523 0.657183 0.753731 -76.3682 97.4956)" fill="#E73361"/>
</g>
<g style="mix-blend-mode:overlay" filter="url(#filter5_f_20_326)">
<rect width="67.3965" height="146.218" transform="matrix(0.753434 -0.657523 0.657183 0.753731 44.5625 -10.1953)" fill="#FFC700"/>
</g>
<g style="mix-blend-mode:multiply" filter="url(#filter6_f_20_326)">
<path d="M26.2951 105.697C8.24257 102.583 3.78255 92.7062 3.78255 75.4225L-10.25 105.697L16.3282 129.628L117.326 113.009C114.668 106.583 103.904 93.7311 82.1094 93.7311C54.8667 93.7311 47.1092 109.287 26.2951 105.697Z" fill="#F87103" fill-opacity="0.38"/>
</g>
</g>
<path d="M72.0114 60.6258C71.8878 60.7959 71.3111 61.5188 70.858 61.9866L70.6108 62.2418C67.1506 66.1118 58.5412 71.938 54.1747 73.8092C54.1747 73.8518 51.5795 74.9575 50.3438 75H50.179C48.2841 75 46.5128 73.8943 45.6065 72.1081C45.1122 71.13 44.6591 68.2807 44.6179 68.2382C44.2472 65.6865 44 61.7783 44 57.4787C44 52.9708 44.2472 48.8882 44.7003 46.3791C44.7003 46.3366 45.1534 44.0401 45.4418 43.2746C45.8949 42.1689 46.7188 41.2333 47.7486 40.6379C48.5724 40.2126 49.4375 40 50.3438 40C51.2912 40.0425 53.0625 40.6847 53.7628 40.9781C58.3764 42.8493 67.1918 48.9733 70.5696 52.7157C71.1463 53.3111 71.7642 54.034 71.929 54.2041C72.6293 55.1397 73 56.288 73 57.5255C73 58.627 72.6705 59.7327 72.0114 60.6258" fill="white"/>
<path d="M5.68565 156.492H15.9723V160.835H0V156.7L10.1949 143.688H0.489573V139.553H15.8805L15.9111 143.688L5.68565 156.492Z" fill="white"/>
<path d="M20.2934 146.033C21.9865 144.371 24.057 143.54 26.5048 143.54C28.9527 143.54 31.0232 144.371 32.7163 146.033C34.4298 147.695 35.2865 149.773 35.2865 152.266C35.2865 154.779 34.44 156.867 32.7469 158.529C31.0742 160.171 28.9935 160.991 26.5048 160.991C24.0366 160.991 21.9559 160.16 20.2628 158.498C18.5901 156.836 17.7537 154.759 17.7537 152.266C17.7537 149.773 18.6003 147.695 20.2934 146.033ZM29.5952 148.952C28.7793 148.101 27.7491 147.675 26.5048 147.675C25.2605 147.675 24.2201 148.101 23.3838 148.952C22.5678 149.803 22.1599 150.908 22.1599 152.266C22.1599 153.624 22.5678 154.729 23.3838 155.58C24.2201 156.431 25.2605 156.857 26.5048 156.857C27.7491 156.857 28.7793 156.431 29.5952 155.58C30.4316 154.729 30.8498 153.624 30.8498 152.266C30.8498 150.908 30.4316 149.803 29.5952 148.952Z" fill="white"/>
<path d="M38.3817 160.627V137.217H42.9658V160.627H38.3817Z" fill="white"/>
<path d="M58.8157 143.905H63.1912L63.1606 160.627H58.7851V158.377C57.4999 160.12 55.7456 160.991 53.5222 160.991C51.2987 160.991 49.4628 160.181 48.0145 158.559C46.5661 156.918 45.842 154.82 45.842 152.266C45.842 149.712 46.5661 147.624 48.0145 146.003C49.4832 144.361 51.3089 143.54 53.4916 143.54C55.7354 143.54 57.5101 144.442 58.8157 146.246V143.905ZM54.5013 156.857C55.7456 156.857 56.7758 156.431 57.5917 155.58C58.4077 154.729 58.8157 153.624 58.8157 152.266C58.8157 150.908 58.4077 149.803 57.5917 148.952C56.7758 148.101 55.7456 147.675 54.5013 147.675C53.257 147.675 52.237 148.101 51.4415 148.952C50.6459 149.803 50.2481 150.908 50.2481 152.266C50.2481 153.624 50.6459 154.729 51.4415 155.58C52.2574 156.431 53.2774 156.857 54.5013 156.857Z" fill="white"/>
<path fill-rule="evenodd" clip-rule="evenodd" d="M74.2542 136.928C72.666 138.516 72.666 141.072 72.666 146.184V151.989C72.666 157.101 72.666 159.657 74.2542 161.246C75.8424 162.834 78.3985 162.834 83.5107 162.834H102.044C107.157 162.834 109.713 162.834 111.301 161.246C112.889 159.657 112.889 157.101 112.889 151.989V146.184C112.889 141.072 112.889 138.516 111.301 136.928C109.713 135.34 107.157 135.34 102.044 135.34H83.5107C78.3985 135.34 75.8424 135.34 74.2542 136.928ZM91.3132 143.95V140.686H78.2667V143.95H83.0696V157.488H86.4865V143.95H91.3132ZM108.307 140.686H104.699L100.637 153.431L96.6223 140.686H93.0142L98.486 157.488H102.787L108.307 140.686Z" fill="white"/>
<defs>
<filter id="filter0_f_20_326" x="-3.33683" y="6.70345" width="120.96" height="113.631" filterUnits="userSpaceOnUse" color-interpolation-filters="sRGB">
<feFlood flood-opacity="0" result="BackgroundImageFix"/>
<feBlend mode="normal" in="SourceGraphic" in2="BackgroundImageFix" result="shape"/>
<feGaussianBlur stdDeviation="1.66841" result="effect1_foregroundBlur_20_326"/>
</filter>
<filter id="filter1_f_20_326" x="-2.66102" y="-7.97914" width="119.608" height="109.943" filterUnits="userSpaceOnUse" color-interpolation-filters="sRGB">
<feFlood flood-opacity="0" result="BackgroundImageFix"/>
<feBlend mode="normal" in="SourceGraphic" in2="BackgroundImageFix" result="shape"/>
<feGaussianBlur stdDeviation="1.33051" result="effect1_foregroundBlur_20_326"/>
</filter>
<filter id="filter2_f_20_326" x="-28.5594" y="-37.911" width="188.105" height="102.946" filterUnits="userSpaceOnUse" color-interpolation-filters="sRGB">
<feFlood flood-opacity="0" result="BackgroundImageFix"/>
<feBlend mode="normal" in="SourceGraphic" in2="BackgroundImageFix" result="shape"/>
<feGaussianBlur stdDeviation="13.3051" result="effect1_foregroundBlur_20_326"/>
</filter>
<filter id="filter3_f_20_326" x="-134.924" y="-83.811" width="303.184" height="313.472" filterUnits="userSpaceOnUse" color-interpolation-filters="sRGB">
<feFlood flood-opacity="0" result="BackgroundImageFix"/>
<feBlend mode="normal" in="SourceGraphic" in2="BackgroundImageFix" result="shape"/>
<feGaussianBlur stdDeviation="34.5933" result="effect1_foregroundBlur_20_326"/>
</filter>
<filter id="filter4_f_20_326" x="-145.555" y="-16.0057" width="285.244" height="292.897" filterUnits="userSpaceOnUse" color-interpolation-filters="sRGB">
<feFlood flood-opacity="0" result="BackgroundImageFix"/>
<feBlend mode="normal" in="SourceGraphic" in2="BackgroundImageFix" result="shape"/>
<feGaussianBlur stdDeviation="34.5933" result="effect1_foregroundBlur_20_326"/>
</filter>
<filter id="filter5_f_20_326" x="-24.624" y="-123.697" width="285.244" height="292.897" filterUnits="userSpaceOnUse" color-interpolation-filters="sRGB">
<feFlood flood-opacity="0" result="BackgroundImageFix"/>
<feBlend mode="normal" in="SourceGraphic" in2="BackgroundImageFix" result="shape"/>
<feGaussianBlur stdDeviation="34.5933" result="effect1_foregroundBlur_20_326"/>
</filter>
<filter id="filter6_f_20_326" x="-16.9025" y="68.7699" width="140.88" height="67.5108" filterUnits="userSpaceOnUse" color-interpolation-filters="sRGB">
<feFlood flood-opacity="0" result="BackgroundImageFix"/>
<feBlend mode="normal" in="SourceGraphic" in2="BackgroundImageFix" result="shape"/>
<feGaussianBlur stdDeviation="3.32627" result="effect1_foregroundBlur_20_326"/>
</filter>
<linearGradient id="paint0_linear_20_326" x1="17.0163" y1="8.38289e-05" x2="105.965" y2="111.795" gradientUnits="userSpaceOnUse">
<stop stop-color="#F88F03"/>
<stop offset="1" stop-color="#F86A03"/>
</linearGradient>
<radialGradient id="paint1_radial_20_326" cx="0" cy="0" r="1" gradientUnits="userSpaceOnUse" gradientTransform="translate(85.0504 75.1178) rotate(82.6769) scale(46.9158 74.2506)">
<stop stop-color="#FB3F39"/>
<stop offset="1" stop-color="#FB3F39" stop-opacity="0"/>
</radialGradient>
<radialGradient id="paint2_radial_20_326" cx="0" cy="0" r="1" gradientUnits="userSpaceOnUse" gradientTransform="translate(24.545 47.8626) rotate(-101.763) scale(48.8894 77.3758)">
<stop stop-color="#FB3F39"/>
<stop offset="1" stop-color="#FB3F39" stop-opacity="0"/>
</radialGradient>
</defs>
</svg>
