<svg width="67" height="26" viewBox="0 0 67 26" fill="none" xmlns="http://www.w3.org/2000/svg">
<path d="M13.9785 4.10211C14.8493 3.0128 15.4396 1.55041 15.2842 0.0561523C14.0097 0.119555 12.454 0.897268 11.5533 1.98689C10.745 2.9204 10.0291 4.44429 10.2158 5.87578C11.6466 6.00003 13.0762 5.16083 13.9785 4.10211ZM15.2679 6.15551C13.19 6.03157 11.4233 7.33467 10.4309 7.33467C9.43776 7.33467 7.91834 6.21796 6.27466 6.24823C4.13555 6.27945 2.15033 7.48887 1.06484 9.4126C-1.16793 13.2613 0.475427 18.9695 2.64703 22.1039C3.70161 23.6545 4.97221 25.3619 6.64679 25.3008C8.22866 25.2386 8.84898 24.2761 10.7718 24.2761C12.6936 24.2761 13.2521 25.3008 14.927 25.2695C16.6634 25.2386 17.7495 23.7179 18.8038 22.166C20.0135 20.3984 20.5086 18.6916 20.5398 18.5976C20.5086 18.5667 17.191 17.2939 17.1601 13.4777C17.1289 10.2821 19.765 8.76233 19.8889 8.66771C18.4004 6.46615 16.0743 6.21764 15.2679 6.15551Z" fill="white"/>
<path d="M28.502 3.21461V7.42975H31.8907V10.2112H28.5024V20.1252C28.5024 21.6596 29.1769 22.3678 30.6603 22.3678C31.0311 22.3678 31.6378 22.3172 31.8742 22.2834V25.082C31.4695 25.1664 30.6603 25.234 29.8679 25.234C26.361 25.234 24.9955 23.885 24.9955 20.4795V10.2115H22.3989V7.42943H24.9955V3.21429L28.502 3.21461ZM43.7517 25.0954H40.0304L33.7714 7.43198H37.4759L41.8659 21.6268H41.95L46.3401 7.43198H49.9773L43.7517 25.0954ZM60.1022 25.0954H56.8859V17.8558H49.9874V14.6729H56.8859V7.43198H60.1022V14.6726H67V17.8554H60.1022V25.0954Z" fill="white"/>
</svg>
