<svg width="55" height="42" viewBox="0 0 55 42" fill="none" xmlns="http://www.w3.org/2000/svg">
<path fill-rule="evenodd" clip-rule="evenodd" d="M41.4039 17.986C41.4224 18.3046 41.3729 18.6092 41.2183 18.8914C40.9693 19.3453 40.7188 19.7992 40.4667 20.2515C40.2371 20.6613 40.0871 21.0982 40.0353 21.566C40.0214 21.692 39.9997 21.8211 40.0747 21.968C40.4134 21.4654 40.7451 20.983 41.1108 20.5245C41.5392 19.9863 41.9931 19.4713 42.5289 19.036C42.8196 18.7994 43.1304 18.5937 43.4985 18.4917C44.0011 18.3525 44.4264 18.5126 44.6985 18.9572C44.9382 19.3461 45.0078 19.7791 45.0225 20.2268C45.0751 21.8505 43.9346 23.6343 42.433 24.2707C41.9869 24.4609 41.5214 24.5258 41.0451 24.45C40.8959 24.4261 40.8487 24.4663 40.7977 24.59C40.1435 26.1758 39.6966 27.8174 39.4701 29.5177C39.4129 29.9483 39.1987 30.0535 38.8461 29.8022C38.284 29.4009 37.984 28.8411 37.9561 28.1522C37.919 27.2467 38.1595 26.3862 38.4332 25.5349C38.652 24.8529 38.9219 24.1902 39.2234 23.5407C39.2644 23.4541 39.3116 23.3761 39.2513 23.2639C38.8198 22.4668 38.8507 21.6325 39.1121 20.8005C39.4647 19.6747 40.1211 18.7414 40.9917 17.9535C41.0366 17.9125 41.0884 17.8785 41.1418 17.8499C41.2918 17.7703 41.393 17.7958 41.4039 17.986ZM4.43126 11.0658C7.18776 11.1415 9.72776 12.0014 12.1479 13.2547C13.7716 14.096 15.2353 15.1622 16.4779 16.5154C17.1274 17.2228 17.6686 18.0015 18.0606 18.8814C18.7148 20.3505 18.5292 21.7299 17.6354 23.0405C16.9086 24.1075 15.8562 24.706 14.6663 25.1026C12.7866 25.7305 10.8798 25.7699 8.95841 25.3153C8.78057 25.2727 8.74423 25.3099 8.73109 25.4838C8.69243 26.0166 8.55248 26.172 8.12644 26.2122C7.60839 26.2609 7.30219 26.0722 7.1808 25.5952C7.1174 25.3454 7.0857 25.0848 7.06559 24.8274C7.05322 24.6604 6.98672 24.5745 6.83672 24.5042C5.58103 23.915 4.46297 23.1302 3.51192 22.1157C3.31861 21.9093 3.14928 21.6835 3.00624 21.4392C2.63123 20.7982 2.74103 20.2244 3.3248 19.7636C3.70599 19.4628 4.13281 19.2425 4.58436 19.0762C5.32123 18.8056 6.06815 18.5613 6.85219 18.4638C7.0393 18.4406 7.10735 18.3656 7.10735 18.1739C7.1058 17.3009 7.20013 16.4373 7.38183 15.5836C7.40503 15.4723 7.43751 15.3617 7.47771 15.2558C7.56431 15.0277 7.70426 14.9906 7.90066 15.1398C8.10169 15.2929 8.21768 15.5063 8.30892 15.7352C8.59346 16.4427 8.62748 17.1911 8.66073 17.9388C8.67542 18.2528 8.67155 18.2543 8.97465 18.2443C10.2551 18.204 11.4976 18.4105 12.7038 18.8319C13.1809 18.9974 13.5954 19.2641 13.9046 19.6731C14.3106 20.209 14.309 20.7897 13.8884 21.2853C13.3827 21.8822 12.8306 21.8992 12.2399 21.6874C12.1757 21.6642 12.1108 21.6317 12.1054 21.5482C12.0992 21.4639 12.1618 21.4291 12.2214 21.3935C12.3915 21.293 12.5778 21.2203 12.7239 21.0804C12.9768 20.8376 12.9505 20.6242 12.6312 20.4788C12.2059 20.2855 11.7497 20.1866 11.2951 20.0907C10.5025 19.9237 9.70301 19.8123 8.89192 19.7853C8.72722 19.7798 8.67078 19.8069 8.67542 19.9902C8.71253 21.2652 8.7365 22.5402 8.76279 23.8152C8.76511 23.915 8.75196 23.9977 8.89965 24.0217C10.7987 24.3294 12.6714 24.3101 14.4753 23.5454C15.1951 23.2407 15.8384 22.8139 16.2506 22.1227C16.8196 21.1685 16.8003 20.1842 16.3526 19.1883C15.7341 17.8128 14.7374 16.7543 13.5497 15.8635C11.2061 14.106 8.56253 13.0429 5.68619 12.5465C4.35626 12.3168 3.01706 12.2403 1.67245 12.4088C1.33533 12.4514 1.00208 12.5148 0.64176 12.6849C0.821145 12.7568 0.948725 12.7684 1.0763 12.78C1.19925 12.7908 1.31909 12.8148 1.42348 12.8836C1.5093 12.9408 1.5758 13.0173 1.56111 13.1295C1.54719 13.2362 1.46059 13.2849 1.3709 13.3042C0.973467 13.3893 0.580677 13.3692 0.207989 13.1967C-0.0162419 13.0939 -0.0301597 12.889 0.0316971 12.6864C0.219587 12.0725 0.62475 11.6689 1.24564 11.491C2.28638 11.1926 3.34877 11.0364 4.43126 11.0658ZM37.868 18.0131C38.2739 18.0007 38.5731 18.1754 38.8059 18.4863C38.9064 18.62 38.9945 18.7646 39.0711 18.9115C39.2226 19.2054 39.1461 19.36 38.8283 19.4172C38.2793 19.5162 37.7249 19.5657 37.1698 19.6059C36.8806 19.6268 36.5906 19.6453 36.3015 19.6585C36.1971 19.6631 36.1344 19.6902 36.1066 19.8038C36.0679 19.9662 36.0107 20.1247 35.9527 20.2817C35.9009 20.4232 35.928 20.4657 36.0888 20.4533C36.5759 20.4147 37.0654 20.4108 37.5533 20.4487C37.8162 20.4688 37.8974 20.5469 37.8935 20.8044C37.8842 21.4879 37.885 21.518 37.2517 21.5497C36.7182 21.5768 36.1847 21.6093 35.6512 21.6224C35.4834 21.6271 35.4146 21.6827 35.3767 21.8435C35.3117 22.118 35.2267 22.3871 35.1385 22.6539C35.0767 22.8394 35.1401 22.8727 35.311 22.8364C36.0347 22.684 36.7623 22.5549 37.4968 22.4637C37.7334 22.4343 37.9144 22.5054 38.0675 22.6763C38.3195 22.9593 38.3164 23.2407 38.0381 23.4974C37.493 24.0024 36.8458 24.3387 36.1569 24.5993C35.9141 24.6913 35.6589 24.7369 35.4068 24.7988C34.4249 25.0408 33.4893 24.0688 33.6184 23.0598C33.6694 22.6639 33.746 22.2765 33.889 21.9062C33.954 21.7399 33.9772 21.5946 33.9045 21.4268C33.8597 21.3247 33.8388 21.208 33.8272 21.0951C33.7908 20.7355 33.8728 20.6211 34.2354 20.5763C34.3885 20.5569 34.4604 20.4951 34.5184 20.3636C34.6282 20.1123 34.7543 19.8688 34.8726 19.6213C34.8787 19.609 34.8764 19.592 34.8803 19.5595C34.4651 19.5286 34.121 19.3708 33.8968 18.9966C33.7066 18.6788 33.7468 18.5466 34.104 18.46C34.861 18.2752 35.6319 18.1731 36.4058 18.0942C36.8922 18.0448 37.3801 18.0285 37.868 18.0131ZM50.9484 16.4821C51.1285 17.5043 51.2762 18.5303 51.3303 19.5672C51.3404 19.7536 51.3899 19.8092 51.5793 19.8077C52.5791 19.7984 53.5796 19.8061 54.5794 19.8C54.7495 19.8 54.891 19.8386 55 19.9724V20.8886C54.8948 21.0278 54.7557 21.068 54.5825 21.0665C53.5904 21.0611 52.5984 21.0688 51.6056 21.0595C51.4309 21.058 51.3922 21.1067 51.3945 21.276C51.41 22.2464 51.3713 23.2145 51.2816 24.181C51.2476 24.5405 51.1865 24.6008 50.8308 24.6008C50.6708 24.6008 50.51 24.6031 50.3499 24.6008C50.087 24.597 49.9911 24.4895 50.0213 24.2297C50.1342 23.25 50.1558 22.2657 50.1597 21.2814C50.1597 21.0959 50.1025 21.0587 49.9293 21.0603C48.9597 21.068 47.9908 21.0642 47.0212 21.0642C46.6663 21.0642 46.5913 20.9884 46.5898 20.635C46.5898 20.4827 46.5875 20.3296 46.5906 20.1773C46.5952 19.8889 46.6725 19.8092 46.9617 19.8085C47.9236 19.8069 48.8855 19.8015 49.8473 19.8131C50.0561 19.8154 50.1164 19.7659 50.0986 19.5525C50.0151 18.5636 49.8976 17.5801 49.7074 16.6066C49.6424 16.271 49.7081 16.1852 50.0437 16.1829C50.2192 16.1829 50.3948 16.1898 50.5695 16.1813C50.7883 16.1713 50.9082 16.2563 50.9484 16.4821ZM19.887 18.2528C20.1468 18.3772 20.2504 18.61 20.3115 18.8698C20.4607 19.5115 20.4939 20.1688 20.5357 20.8237C20.5666 21.3031 20.5836 21.784 20.6076 22.2649C20.6223 22.8062 20.6602 23.3474 20.6323 23.891C20.6115 24.2985 20.4584 24.5142 20.1676 24.5544C19.672 24.6225 19.3349 24.4508 19.2058 24.0588C19.1145 23.7804 19.0998 23.4874 19.0898 23.199C19.0372 21.801 19.0457 20.4046 19.2986 19.0213C19.3403 18.7963 19.3913 18.5729 19.5019 18.3695C19.5908 18.2071 19.72 18.1723 19.887 18.2528ZM25.0536 17.9551C25.7587 17.9605 26.4577 18.0146 27.118 18.2891C27.275 18.3548 27.5046 18.385 27.5031 18.6231C27.5023 18.8659 27.3523 19.036 27.1451 19.1435C26.8459 19.2989 26.5118 19.3036 26.1863 19.3291C25.3257 19.394 24.4613 19.3793 23.6015 19.4682C23.1917 19.5108 22.7842 19.5664 22.3899 19.6925C22.3094 19.7172 22.202 19.7358 22.1989 19.8286C22.195 19.9445 22.3156 19.9546 22.3999 19.9716C22.9767 20.0907 23.5651 20.1247 24.1474 20.2005C24.7891 20.284 25.4309 20.3551 26.0649 20.509C27.5727 20.8755 27.633 22.8302 26.8582 23.581C26.4245 24.0008 25.9103 24.2374 25.3273 24.3418C24.118 24.5583 23.0076 24.324 22.0117 23.5956C21.738 23.3954 21.5053 23.1503 21.3831 22.8255C21.2014 22.3415 21.3994 21.8521 21.8788 21.5837C22.2352 21.3835 22.6295 21.3162 23.027 21.3224C23.8334 21.3348 24.6198 21.4693 25.3598 21.8126C25.4773 21.8667 25.6165 21.9193 25.6134 22.0755C25.611 22.2209 25.492 22.2982 25.3737 22.357C24.8262 22.6276 24.268 22.7374 23.678 22.4822C23.3432 22.3376 23.0146 22.1737 22.652 22.1026C22.4741 22.0678 22.3017 22.0786 22.1355 22.1474C21.9924 22.207 21.888 22.3121 21.8764 22.4698C21.8648 22.6168 21.9692 22.708 22.0829 22.7768C22.3288 22.9245 22.6033 23.0057 22.8839 23.0227C23.8644 23.0807 24.8193 22.9755 25.7123 22.5271C25.7866 22.4892 25.8592 22.4459 25.9288 22.3987C26.092 22.2881 26.2884 22.1899 26.2652 21.9503C26.242 21.7214 26.0456 21.627 25.867 21.5482C25.3149 21.3054 24.7226 21.2335 24.1319 21.1639C23.3819 21.075 22.6241 21.0595 21.8772 20.935C21.1071 20.8067 20.8334 20.3412 21.0754 19.5974C21.2068 19.1899 21.4821 18.9061 21.8339 18.685C22.4277 18.3107 23.0958 18.1592 23.7762 18.0517C24.1984 17.9852 24.6244 17.9481 25.0536 17.9551ZM31.4789 17.1649C31.6962 17.2955 31.8833 17.4649 32.0527 17.652C32.6596 18.3223 32.9898 19.1249 33.1568 20.0002C33.3594 21.0642 33.3555 22.1219 33.0114 23.1634C32.9558 23.3335 32.8669 23.482 32.7532 23.6173C32.3333 24.1183 31.7326 24.1462 31.2841 23.673C30.8341 23.199 30.5186 22.6299 30.2047 22.0631C29.9805 21.6572 29.7655 21.2451 29.542 20.8376C29.5111 20.7812 29.4833 20.6891 29.4052 20.7046C29.3248 20.7201 29.3402 20.8136 29.3317 20.8786C29.2606 21.3781 29.256 21.8822 29.2436 22.3856C29.2312 22.8804 29.2243 23.3776 29.1106 23.8647C29.034 24.1941 28.8616 24.3534 28.5802 24.3712C28.3065 24.389 28.0598 24.2219 27.9516 23.9335C27.7915 23.509 27.817 23.0629 27.807 22.6214C27.8302 21.5412 27.9686 20.4788 28.2802 19.442C28.3498 19.2077 28.4371 18.9796 28.5748 18.7754C28.8361 18.3896 29.1346 18.3556 29.4624 18.6881C30.0176 19.251 30.439 19.9152 30.8542 20.5824C31.1248 21.0154 31.3962 21.4477 31.6715 21.8776C31.7186 21.9518 31.7666 22.0585 31.8756 22.0314C31.9985 22.0005 31.956 21.8768 31.9529 21.7972C31.9305 21.1067 31.7619 20.4394 31.6057 19.7721C31.455 19.128 31.2733 18.4901 31.1047 17.8499C31.0614 17.6875 31.0204 17.5252 31.0529 17.3543C31.1039 17.0899 31.2447 17.0241 31.4789 17.1649ZM6.88621 19.8595C6.38517 19.8997 5.88335 19.9368 5.38773 20.0242C4.7738 20.1324 4.15368 20.2252 3.58228 20.4927C3.18562 20.6783 3.14928 20.8824 3.4315 21.2219C3.48949 21.2915 3.55522 21.3564 3.61785 21.4229C4.19389 22.0237 4.88359 22.4683 5.60268 22.8735C6.05346 23.1286 6.52435 23.3335 7.01379 23.492C7.02384 23.475 7.0308 23.4681 7.0308 23.4611C7.0308 22.2951 7.0277 21.1299 7.03002 19.9639C7.03002 19.8479 6.97435 19.8525 6.88621 19.8595ZM43.6075 19.9685L42.5737 21.2172C42.2018 21.7268 41.8624 22.2549 41.5585 22.8425C41.9096 22.8054 42.2142 22.7157 42.5018 22.5796C43.4993 22.1111 44.1055 21.3479 44.2145 20.2322C44.2323 20.0505 44.2686 19.81 44.0575 19.7242C43.858 19.6445 43.7281 19.8386 43.6075 19.9685ZM21.3143 12.2712C21.7867 12.2642 22.1927 12.4382 22.5082 12.7985C22.5731 12.872 22.6489 12.9006 22.7424 12.9215C23.5852 13.107 23.9842 13.8261 23.7043 14.6411C23.6239 14.8746 23.511 15.0919 23.3486 15.2751C22.5785 16.1442 21.6708 16.7945 20.5156 17.0574C20.0571 17.1618 19.6063 17.1347 19.1625 16.9971C19.0418 16.96 18.9792 16.9785 18.9367 17.0906L18.9266 17.1115C18.83 17.2847 18.7411 17.4958 18.5014 17.4656C18.2741 17.4378 18.1766 17.2337 18.097 17.0404C18.063 16.9561 18.0228 16.8602 18.0328 16.7759C18.0722 16.4473 17.9284 16.1937 17.7568 15.9331C17.6091 15.7081 17.5627 15.4383 17.5573 15.1692C17.5588 14.7981 17.6632 14.4524 17.872 14.1563C18.7078 12.9655 19.8375 12.2929 21.3143 12.2712ZM22.2267 13.7326C21.994 13.779 21.7744 13.8601 21.5718 13.9877C21.0715 14.3009 20.6316 14.6859 20.2249 15.1128C20.0192 15.3292 19.8475 15.5713 19.6697 15.8094C19.6032 15.8991 19.6148 15.9447 19.7339 15.944H20.1452C20.9826 15.9517 21.7272 15.6826 22.3798 15.1607C22.6087 14.9782 22.8097 14.7694 22.9002 14.481C23.0517 14.0032 22.7161 13.6336 22.2267 13.7326ZM20.1584 13.6197C19.5174 13.6004 18.5586 14.338 18.4264 14.931C18.3815 15.1336 18.4009 15.2341 18.5292 15.4197C18.9684 14.7292 19.5305 14.1555 20.1584 13.6197Z" fill="white"/>
<path d="M28.8318 0C28.2024 0 27.5769 0.0347945 26.9669 0.117528C25.5875 0.305418 24.2212 0.490989 22.8712 0.856717C21.5003 1.22786 20.1634 1.72349 18.8829 2.33742C16.2208 3.61321 13.8509 5.3684 11.8568 7.54576C11.0503 8.42568 10.3359 9.36822 9.66086 10.351C9.51241 10.5667 9.57813 10.7445 9.82014 10.8304C9.97092 10.8837 10.1225 10.934 10.2748 10.9842C10.5531 11.0755 10.6374 11.0422 10.8114 10.7971C11.2011 10.2497 11.5753 9.669 12.0261 9.17337C12.5171 8.63599 13.0065 8.09706 13.4975 7.55891C14.0651 7.02539 14.6543 6.51585 15.262 6.0295C17.5461 4.20163 20.2337 2.82067 23.0505 2.03432C26.0197 1.20698 29.1636 1.01832 32.2115 1.47142C34.1562 1.7606 36.0575 2.31809 37.856 3.11217C39.9019 4.01683 41.8125 5.22768 43.4981 6.69987C45.6121 8.54552 47.3154 10.7809 48.5881 13.2822C48.7358 13.5722 48.8773 13.8644 49.0119 14.1606C49.3482 14.8959 49.209 14.8889 49.884 14.8828C49.9614 14.8812 50.0487 14.8804 50.1493 14.8812C50.3859 14.8812 50.5668 14.7745 50.4763 14.5155C50.0132 13.1902 49.2717 11.9121 48.5139 10.736C47.7392 9.53523 46.8531 8.40634 45.8734 7.3656L45.8146 7.30375C44.2628 5.66918 42.4937 4.23101 40.5267 3.12377C39.748 2.65443 38.9338 2.257 38.0926 1.9137C37.4338 1.59436 36.741 1.3624 36.0467 1.13662C34.5892 0.663415 33.0814 0.340986 31.5582 0.170106C30.6783 0.0719086 29.7643 0 28.8558 0H28.8318Z" fill="url(#paint0_radial_20_310)"/>
<path d="M41.4719 33.3379C42.6054 33.3379 43.5572 33.7585 44.1596 34.64H44.1874V33.5482H45.6434V41.3035H44.1874V40.0989H44.1596C43.6137 41.0229 42.6333 41.4991 41.5276 41.4991C39.2605 41.4991 37.4125 39.7911 37.4125 37.5519C37.4125 35.0745 39.1902 33.3379 41.4719 33.3379ZM18.3266 33.3379C20.4684 33.3379 22.4834 35.0181 22.4556 37.4815C22.4277 39.594 20.6238 41.5749 18.0684 41.4968C15.9018 41.4303 14.06 39.5684 14.0856 37.4011C14.1126 35.0622 15.9645 33.3379 18.3266 33.3379ZM30.057 33.3379C31.3452 33.3379 32.3952 34.2348 32.4369 35.6057H30.981C30.9114 35.0459 30.5897 34.6678 29.9874 34.6678C29.4276 34.6678 29.0773 35.0467 29.0773 35.4944C29.0773 36.1516 29.75 36.348 30.5194 36.5862C31.6111 36.9217 32.6186 37.5797 32.6186 39.0218C32.6186 40.5195 31.5269 41.4991 30.0152 41.4991C28.6157 41.4991 27.2719 40.5473 27.2719 38.7558H28.7278C28.7974 39.6937 29.2737 40.1692 30.0431 40.1692C30.7158 40.1692 31.1635 39.7355 31.1635 39.1053C31.1635 38.5733 30.7575 38.2238 29.8475 37.93C27.9438 37.3277 27.6214 36.5019 27.6214 35.6197C27.6214 34.248 28.7835 33.3387 30.057 33.3387V33.3379ZM5.85938 30.9448C6.66351 30.9448 7.31533 31.5966 7.31533 32.4008V34.374H7.34316C7.80554 33.6882 8.54705 33.3379 9.51279 33.3379C11.3608 33.3379 12.7464 34.514 12.7464 36.6418V41.3028H11.2904V37.0895C11.2904 35.424 10.6463 34.6686 9.35893 34.6686C8.08545 34.6686 7.31533 35.5918 7.31533 37.1042V41.3028H5.85938V30.9448ZM25.5639 30.9448V33.5482H26.8373V34.8781H25.5639V41.3035C24.7597 41.3035 24.1079 40.6509 24.1079 39.8476V34.8781H23.5064V33.5482H24.1079V30.9448H25.5639ZM35.6767 30.9448V33.5482H36.9502V34.8781H35.6767V41.3035C34.8726 41.3035 34.2207 40.6509 34.2207 39.8476V34.8781H33.6192V33.5482H34.2207V30.9448H35.6767ZM50.8788 33.3387V34.8364C49.6184 34.8781 48.9751 35.6483 48.9751 36.9496V39.8476C48.9751 40.6517 48.3233 41.3028 47.5192 41.3028V33.5475H48.8769V34.248H48.9048C49.255 33.7299 49.8574 33.3944 50.8788 33.3387ZM41.5144 34.6686C39.9773 34.6686 38.7363 36.0565 38.8793 37.6965C38.9969 39.0481 40.1025 40.1414 41.4588 40.1685C42.9974 40.1994 44.2153 38.9274 44.2153 37.439C44.2153 35.9282 43.1235 34.6686 41.5144 34.6686ZM18.2563 34.6686C16.5869 34.6686 15.175 36.2877 15.6258 38.0924C15.9312 39.3164 17.047 40.2032 18.3081 40.1685C19.7973 40.1275 21.0004 38.9383 21.0004 37.3973C21.0004 35.8856 19.7818 34.6686 18.2563 34.6686Z" fill="white"/>
<defs>
<radialGradient id="paint0_radial_20_310" cx="0" cy="0" r="1" gradientUnits="userSpaceOnUse" gradientTransform="translate(18.5875 14.8499) rotate(-0.0283533) scale(39.0276 39.0286)">
<stop stop-color="#0006DA" stop-opacity="0"/>
<stop offset="0.203125" stop-color="#0003EE"/>
<stop offset="0.598958" stop-color="#27EFF2"/>
<stop offset="1" stop-color="#27EFF2"/>
</radialGradient>
</defs>
</svg>
