<svg width="44" height="45" viewBox="0 0 44 45" fill="none" xmlns="http://www.w3.org/2000/svg">
<path fill-rule="evenodd" clip-rule="evenodd" d="M21.999 1.88V0.418457C9.84925 0.417994 0 10.2681 0 22.4185C0 34.5688 9.84925 44.4185 21.999 44.4185V42.9569C14.1117 42.95 6.59331 38.3722 3.2127 30.6885C-1.35381 20.3086 3.35761 8.19112 13.7372 3.62403C16.3419 2.47418 19.155 1.88034 21.999 1.88" fill="#22BBBE"/>
<path fill-rule="evenodd" clip-rule="evenodd" d="M14.3212 4.96831L13.7315 3.62671C3.35137 8.1938 -1.36004 20.3108 3.20693 30.6907C7.7739 41.0706 19.8905 45.7831 30.2702 41.2156L29.6795 39.8744C24.3121 42.2307 17.9337 42.0894 12.4678 38.9334C3.34862 33.6684 0.224233 22.0076 5.4895 12.8878C7.51815 9.36634 10.6132 6.5911 14.3217 4.96831" fill="#7DAD41"/>
<path fill-rule="evenodd" clip-rule="evenodd" d="M30.8027 7.16986L31.5318 5.90653C22.4126 0.641086 10.7523 3.76655 5.48705 12.8854C0.222251 22.0048 3.34709 33.6661 12.4658 38.9311L13.1973 37.6645C11.7359 36.8175 10.4033 35.7631 9.24027 34.5339C2.54944 27.4833 2.84154 16.3434 9.89164 9.65208C15.6804 4.15833 24.226 3.37291 30.8027 7.17033" fill="#F4B719"/>
<path fill-rule="evenodd" clip-rule="evenodd" d="M10.893 10.7144L9.88783 9.65527C2.83728 16.3466 2.54241 27.4827 9.23324 34.5334C15.9241 41.5846 27.0632 41.8759 34.1133 35.185L33.105 34.1222C29.3458 37.6834 23.943 39.3747 18.5075 38.1692C9.80871 36.2409 4.3208 27.6254 6.24916 18.9265C6.94247 15.7817 8.5607 12.92 10.893 10.7144" fill="#E55824"/>
<path fill-rule="evenodd" clip-rule="evenodd" d="M25.1739 8.10088L25.4913 6.66806C16.7925 4.73971 8.1779 10.2279 6.24908 18.9272C4.32073 27.6261 9.80956 36.2416 18.5079 38.1699L18.8253 36.739L18.823 36.7385C10.914 34.9843 5.92478 27.1523 7.67787 19.2444C9.43097 11.3366 17.2631 6.34713 25.1706 8.09996L25.1739 8.10088Z" fill="#B52C80"/>
<path fill-rule="evenodd" clip-rule="evenodd" d="M32.7719 24.6525H36.4856C36.5647 24.1352 36.6162 23.6091 36.6402 23.0756L32.7715 23.0946V24.6525H32.7719ZM32.7719 20.1382V21.6433L36.6333 21.6238C36.6067 21.1263 36.5549 20.6304 36.4782 20.1382H32.7719Z" fill="#FEFEFE"/>
<path fill-rule="evenodd" clip-rule="evenodd" d="M31.1512 26.1037V18.6867H36.1754C34.524 12.3941 28.7992 7.75244 21.9887 7.75244C13.8889 7.75244 7.32227 14.3192 7.32227 22.4188C7.32227 30.5189 13.8889 37.0856 21.9883 37.0856C28.8157 37.0856 34.553 32.4204 36.1874 26.1037H31.1503H31.1512ZM38.5523 25.09L39.355 24.1499C39.9461 24.6986 40.5694 25.0367 41.2553 25.0367C42.1422 25.0367 42.7227 24.5301 42.7227 23.759V23.7382C42.7227 22.9884 42.0893 22.5133 41.1918 22.5133C40.6637 22.5133 40.2102 22.6615 39.8302 22.8407L39.0482 22.3229L39.2598 18.7015H43.6731V19.8523H40.379L40.2626 21.5843C40.6113 21.4574 40.9388 21.3727 41.4347 21.3727C42.8704 21.3727 44.0002 22.1331 44.0002 23.6956V23.7169C44.0002 25.2266 42.9021 26.2195 41.2659 26.2195C40.1361 26.2195 39.2492 25.7656 38.5518 25.0895" fill="#FEFEFE"/>
<path fill-rule="evenodd" clip-rule="evenodd" d="M29.1864 20.1385H25.16V21.6435H29.1864V23.0949H25.16V24.6528H29.1864V26.1041H23.5384V18.6871H29.186L29.1864 20.1385ZM21.8332 19.9268L17.7534 24.6736H21.8332V26.1046H15.6553V24.8644L19.7346 20.1176H15.7832V18.6871H21.8332V19.9268ZM36.634 21.6241H36.5802L32.7713 21.6431V20.1385H36.4794C36.4029 19.6496 36.3016 19.165 36.1758 18.6866H31.1511V26.1041H36.1887C36.312 25.6294 36.4113 25.1455 36.4868 24.6528H32.7722V23.0949L36.5889 23.0764L36.6404 23.0759H36.6409C36.6624 22.5923 36.6602 22.1079 36.6344 21.6245" fill="#020303"/>
</svg>
